<svg xmlns="http://www.w3.org/2000/svg" viewBox="0 0 512 512">
  <rect width="512" height="512" rx="96" fill="#0a0a0f"/>
  <rect x="8" y="8" width="496" height="496" rx="92" fill="none" stroke="#00f0c8" stroke-width="2" opacity="0.3"/>
  <circle cx="256" cy="256" r="32" fill="#00f0c8"/>
  <path d="M 180 256 A 76 76 0 0 1 332 256" fill="none" stroke="#00f0c8" stroke-width="10" stroke-linecap="round"/>
  <path d="M 130 256 A 126 126 0 0 1 382 256" fill="none" stroke="#00f0c8" stroke-width="8" stroke-linecap="round" opacity="0.7"/>
  <path d="M 80 256 A 176 176 0 0 1 432 256" fill="none" stroke="#00f0c8" stroke-width="6" stroke-linecap="round" opacity="0.4"/>
  <g opacity="0.9">
    <rect x="160" y="380" width="6" height="40" fill="#00f0c8" rx="2"/>
    <rect x="180" y="365" width="6" height="55" fill="#00f0c8" rx="2"/>
    <rect x="200" y="350" width="6" height="70" fill="#00f0c8" rx="2"/>
    <rect x="220" y="370" width="6" height="50" fill="#00f0c8" rx="2"/>
    <rect x="240" y="355" width="6" height="65" fill="#00f0c8" rx="2"/>
    <rect x="260" y="345" width="6" height="75" fill="#00f0c8" rx="2"/>
    <rect x="280" y="360" width="6" height="60" fill="#00f0c8" rx="2"/>
    <rect x="300" y="375" width="6" height="45" fill="#00f0c8" rx="2"/>
    <rect x="320" y="385" width="6" height="35" fill="#00f0c8" rx="2"/>
    <rect x="340" y="365" width="6" height="55" fill="#00f0c8" rx="2"/>
  </g>
</svg>
